<svg width="64" height="64" viewBox="0 0 64 64" fill="none" xmlns="http://www.w3.org/2000/svg">
<path fill-rule="evenodd" clip-rule="evenodd" d="M32 64C49.6731 64 64 49.6731 64 32C64 14.3269 49.6731 0 32 0C14.3269 0 0 14.3269 0 32C0 49.6731 14.3269 64 32 64ZM25.05 49.225C27.4333 50.1417 30.1667 50.6 33.25 50.6C34.4833 50.6 35.7 50.5417 36.9 50.425C38.1 50.325 39.2417 50.1833 40.325 50C41.4083 49.8 42.3833 49.5833 43.25 49.35C44.1333 49.1167 44.8583 48.875 45.425 48.625V43.95V39.825V35.55V31.75H38.85V35.55V39.825V43.975V44.4624C38.1567 44.61 37.4484 44.7225 36.725 44.8C35.7917 44.8833 34.825 44.925 33.825 44.925C31.6917 44.925 29.8333 44.6 28.25 43.95C26.6667 43.2833 25.3667 42.3667 24.35 41.2C23.3333 40.0333 22.575 38.6833 22.075 37.15C21.575 35.6 21.325 33.9417 21.325 32.175C21.325 30.175 21.6167 28.4 22.2 26.85C22.7833 25.2833 23.6 23.9667 24.65 22.9C25.7167 21.8167 26.9583 21.0083 28.375 20.475C29.8083 19.925 31.3667 19.65 33.05 19.65C34.1333 19.65 35.275 19.7667 36.475 20C37.6917 20.2167 38.95 20.575 40.25 21.075C41.5667 21.5583 42.9167 22.1917 44.3 22.975L44.85 16.45C44.1833 16.1 43.3917 15.7667 42.475 15.45C41.575 15.1167 40.5917 14.8167 39.525 14.55C38.475 14.2667 37.3583 14.05 36.175 13.9C34.9917 13.7333 33.775 13.65 32.525 13.65C28.7083 13.65 25.425 14.4417 22.675 16.025C19.925 17.5917 17.8083 19.7667 16.325 22.55C14.8417 25.3333 14.1 28.5333 14.1 32.15C14.1 34.8167 14.5167 37.275 15.35 39.525C16.2 41.775 17.4333 43.725 19.05 45.375C20.6833 47.025 22.6833 48.3083 25.05 49.225Z" fill="#135262"/>
</svg>
